<?xml version="1.0" standalone="no"?>
<!DOCTYPE svg PUBLIC "-//W3C//DTD SVG 20010904//EN"
 "http://www.w3.org/TR/2001/REC-SVG-20010904/DTD/svg10.dtd">
<svg version="1.0" xmlns="http://www.w3.org/2000/svg"
 width="700.000000pt" height="700.000000pt" viewBox="0 0 700.000000 700.000000"
 preserveAspectRatio="xMidYMid meet">
<g transform="translate(0.000000,700.000000) scale(0.100000,-0.100000)"
fill="#000000" stroke="none">
<path d="M847 6564 c-1 -1 -29 -5 -62 -8 -98 -11 -125 -16 -199 -43 -249 -89
-445 -285 -535 -535 -48 -133 -46 -17 -46 -2483 l0 -2320 23 -80 c55 -190 144
-329 287 -451 138 -116 295 -183 469 -200 91 -9 5361 -9 5441 -1 350 39 645
293 747 642 l23 80 3 2301 c2 2481 5 2366 -48 2514 -87 244 -291 448 -532 531
-46 15 -117 33 -158 40 -56 9 -744 12 -2743 13 -1468 1 -2669 0 -2670 0z
m5401 -457 c158 -46 281 -184 309 -347 8 -49 10 -2901 1 -2906 -4 -3 -44 15
-90 39 -46 24 -191 99 -323 167 -132 67 -303 155 -380 195 -724 375 -880 453
-920 460 -22 3 -62 1 -90 -6 -49 -11 -72 -33 -885 -844 l-835 -833 -590 394
c-324 216 -605 399 -623 405 -84 28 -169 4 -253 -74 -25 -23 -79 -71 -119
-107 -41 -36 -94 -84 -120 -106 -25 -23 -88 -79 -140 -125 -52 -46 -97 -86
-100 -89 -3 -3 -63 -57 -135 -120 -71 -63 -139 -124 -151 -135 -11 -11 -47
-43 -80 -72 -32 -28 -71 -62 -85 -75 -14 -12 -54 -48 -88 -78 -35 -30 -74 -66
-87 -80 l-24 -25 0 55 c-5 473 0 3921 5 3952 26 175 156 316 331 360 40 10
584 13 2735 12 2375 -2 2690 -3 2737 -17z"/>
<path d="M1797 5225 c-285 -82 -472 -320 -482 -614 -14 -454 435 -784 867
-636 210 72 377 256 427 471 59 252 -46 528 -259 681 -158 114 -370 151 -553
98z"/>
</g>
</svg>
